<mxfile host="app.diagrams.net" modified="2023-11-26T13:28:36.095Z" agent="Mozilla/5.0 (Windows NT 10.0; Win64; x64) AppleWebKit/537.36 (KHTML, like Gecko) Chrome/119.0.0.0 Safari/537.36" etag="4tHnJHI_tu6MSBJEjrbn" version="22.1.4" type="device">
  <diagram name="Page-1" id="FEoVGr_MPY9umUm7WN96">
    <mxGraphModel dx="881" dy="404" grid="1" gridSize="10" guides="1" tooltips="1" connect="1" arrows="1" fold="1" page="1" pageScale="1" pageWidth="850" pageHeight="1100" math="0" shadow="0">
      <root>
        <mxCell id="0" />
        <mxCell id="1" parent="0" />
        <mxCell id="JsnU3qr7tneaZikCSvJV-19" style="edgeStyle=orthogonalEdgeStyle;rounded=0;orthogonalLoop=1;jettySize=auto;html=1;exitX=1;exitY=0.5;exitDx=0;exitDy=0;entryX=0;entryY=0.5;entryDx=0;entryDy=0;" edge="1" source="JsnU3qr7tneaZikCSvJV-21" target="JsnU3qr7tneaZikCSvJV-26" parent="1">
          <mxGeometry relative="1" as="geometry">
            <Array as="points" />
          </mxGeometry>
        </mxCell>
        <mxCell id="JsnU3qr7tneaZikCSvJV-20" value="Prompt" style="edgeLabel;html=1;align=center;verticalAlign=middle;resizable=0;points=[];" vertex="1" connectable="0" parent="JsnU3qr7tneaZikCSvJV-19">
          <mxGeometry x="-0.2" y="-1" relative="1" as="geometry">
            <mxPoint x="14" y="-1" as="offset" />
          </mxGeometry>
        </mxCell>
        <mxCell id="JsnU3qr7tneaZikCSvJV-21" value="User" style="rounded=0;whiteSpace=wrap;html=1;" vertex="1" parent="1">
          <mxGeometry x="50" y="425" width="120" height="60" as="geometry" />
        </mxCell>
        <mxCell id="JsnU3qr7tneaZikCSvJV-24" style="edgeStyle=orthogonalEdgeStyle;rounded=0;orthogonalLoop=1;jettySize=auto;html=1;exitX=0;exitY=0.5;exitDx=0;exitDy=0;" edge="1" source="JsnU3qr7tneaZikCSvJV-37" target="JsnU3qr7tneaZikCSvJV-21" parent="1">
          <mxGeometry relative="1" as="geometry">
            <mxPoint x="290" y="520" as="sourcePoint" />
            <mxPoint x="154.98" y="520.05" as="targetPoint" />
            <Array as="points" />
          </mxGeometry>
        </mxCell>
        <mxCell id="JsnU3qr7tneaZikCSvJV-25" value="Resultant Metrics" style="edgeLabel;html=1;align=center;verticalAlign=middle;resizable=0;points=[];" vertex="1" connectable="0" parent="JsnU3qr7tneaZikCSvJV-24">
          <mxGeometry x="-0.1568" y="2" relative="1" as="geometry">
            <mxPoint x="51" y="-2" as="offset" />
          </mxGeometry>
        </mxCell>
        <mxCell id="JsnU3qr7tneaZikCSvJV-35" style="edgeStyle=orthogonalEdgeStyle;rounded=0;orthogonalLoop=1;jettySize=auto;html=1;" edge="1" parent="1" source="JsnU3qr7tneaZikCSvJV-26" target="JsnU3qr7tneaZikCSvJV-34">
          <mxGeometry relative="1" as="geometry" />
        </mxCell>
        <mxCell id="JsnU3qr7tneaZikCSvJV-36" value="Images" style="edgeLabel;html=1;align=center;verticalAlign=middle;resizable=0;points=[];" vertex="1" connectable="0" parent="JsnU3qr7tneaZikCSvJV-35">
          <mxGeometry x="-0.3636" y="-2" relative="1" as="geometry">
            <mxPoint x="18" y="-2" as="offset" />
          </mxGeometry>
        </mxCell>
        <mxCell id="JsnU3qr7tneaZikCSvJV-26" value="Clip Image &lt;br&gt;Retrieval Process" style="ellipse;whiteSpace=wrap;html=1;aspect=fixed;" vertex="1" parent="1">
          <mxGeometry x="285" y="390" width="130" height="130" as="geometry" />
        </mxCell>
        <mxCell id="JsnU3qr7tneaZikCSvJV-27" style="edgeStyle=orthogonalEdgeStyle;rounded=0;orthogonalLoop=1;jettySize=auto;html=1;exitX=0.5;exitY=1;exitDx=0;exitDy=0;" edge="1" source="JsnU3qr7tneaZikCSvJV-29" target="JsnU3qr7tneaZikCSvJV-26" parent="1">
          <mxGeometry relative="1" as="geometry">
            <mxPoint x="380" y="350" as="targetPoint" />
            <Array as="points" />
          </mxGeometry>
        </mxCell>
        <mxCell id="JsnU3qr7tneaZikCSvJV-28" value="Images" style="edgeLabel;html=1;align=center;verticalAlign=middle;resizable=0;points=[];" vertex="1" connectable="0" parent="JsnU3qr7tneaZikCSvJV-27">
          <mxGeometry x="-0.292" relative="1" as="geometry">
            <mxPoint y="8" as="offset" />
          </mxGeometry>
        </mxCell>
        <mxCell id="JsnU3qr7tneaZikCSvJV-29" value="LAION-5B dataset" style="html=1;dashed=0;whiteSpace=wrap;shape=partialRectangle;right=0;left=0;" vertex="1" parent="1">
          <mxGeometry x="300" y="280" width="100" height="30" as="geometry" />
        </mxCell>
        <mxCell id="JsnU3qr7tneaZikCSvJV-30" value="Level 1 DFD" style="shape=umlFrame;whiteSpace=wrap;html=1;pointerEvents=0;width=120;height=30;" vertex="1" parent="1">
          <mxGeometry x="40" y="240" width="630" height="450" as="geometry" />
        </mxCell>
        <mxCell id="JsnU3qr7tneaZikCSvJV-31" value="&amp;nbsp;Hard Disk" style="html=1;dashed=0;whiteSpace=wrap;shape=partialRectangle;right=0;left=0;" vertex="1" parent="1">
          <mxGeometry x="545" y="280" width="100" height="30" as="geometry" />
        </mxCell>
        <mxCell id="JsnU3qr7tneaZikCSvJV-32" style="edgeStyle=orthogonalEdgeStyle;rounded=0;orthogonalLoop=1;jettySize=auto;html=1;exitX=0.5;exitY=1;exitDx=0;exitDy=0;entryX=0.5;entryY=0;entryDx=0;entryDy=0;" edge="1" source="JsnU3qr7tneaZikCSvJV-31" target="JsnU3qr7tneaZikCSvJV-34" parent="1">
          <mxGeometry relative="1" as="geometry">
            <mxPoint x="390" y="290" as="sourcePoint" />
            <mxPoint x="540" y="330" as="targetPoint" />
            <Array as="points">
              <mxPoint x="595" y="300" />
              <mxPoint x="595" y="300" />
            </Array>
          </mxGeometry>
        </mxCell>
        <mxCell id="JsnU3qr7tneaZikCSvJV-33" value="Images" style="edgeLabel;html=1;align=center;verticalAlign=middle;resizable=0;points=[];" vertex="1" connectable="0" parent="JsnU3qr7tneaZikCSvJV-32">
          <mxGeometry x="-0.292" relative="1" as="geometry">
            <mxPoint y="2" as="offset" />
          </mxGeometry>
        </mxCell>
        <mxCell id="JsnU3qr7tneaZikCSvJV-38" style="edgeStyle=orthogonalEdgeStyle;rounded=0;orthogonalLoop=1;jettySize=auto;html=1;exitX=0.5;exitY=1;exitDx=0;exitDy=0;entryX=1;entryY=0.5;entryDx=0;entryDy=0;" edge="1" parent="1" source="JsnU3qr7tneaZikCSvJV-34" target="JsnU3qr7tneaZikCSvJV-37">
          <mxGeometry relative="1" as="geometry">
            <mxPoint x="620" y="510" as="sourcePoint" />
            <Array as="points">
              <mxPoint x="595" y="615" />
            </Array>
          </mxGeometry>
        </mxCell>
        <mxCell id="JsnU3qr7tneaZikCSvJV-40" value="Metrics" style="edgeLabel;html=1;align=center;verticalAlign=middle;resizable=0;points=[];" vertex="1" connectable="0" parent="JsnU3qr7tneaZikCSvJV-38">
          <mxGeometry x="-0.4915" relative="1" as="geometry">
            <mxPoint x="-85" y="25" as="offset" />
          </mxGeometry>
        </mxCell>
        <mxCell id="JsnU3qr7tneaZikCSvJV-34" value="Feature Extraction&lt;br&gt;Process" style="ellipse;whiteSpace=wrap;html=1;aspect=fixed;" vertex="1" parent="1">
          <mxGeometry x="530" y="390" width="130" height="130" as="geometry" />
        </mxCell>
        <mxCell id="JsnU3qr7tneaZikCSvJV-37" value="Metric Visualisation&amp;nbsp;&lt;br&gt;Process" style="ellipse;whiteSpace=wrap;html=1;aspect=fixed;" vertex="1" parent="1">
          <mxGeometry x="285" y="550" width="130" height="130" as="geometry" />
        </mxCell>
        <mxCell id="JsnU3qr7tneaZikCSvJV-2" value="User" style="rounded=0;whiteSpace=wrap;html=1;" vertex="1" parent="1">
          <mxGeometry x="50" y="115" width="120" height="60" as="geometry" />
        </mxCell>
        <mxCell id="JsnU3qr7tneaZikCSvJV-8" style="edgeStyle=orthogonalEdgeStyle;rounded=0;orthogonalLoop=1;jettySize=auto;html=1;entryX=1;entryY=0.75;entryDx=0;entryDy=0;exitX=0.154;exitY=0.615;exitDx=0;exitDy=0;exitPerimeter=0;" edge="1" parent="1" source="JsnU3qr7tneaZikCSvJV-3" target="JsnU3qr7tneaZikCSvJV-2">
          <mxGeometry relative="1" as="geometry">
            <Array as="points" />
          </mxGeometry>
        </mxCell>
        <mxCell id="JsnU3qr7tneaZikCSvJV-9" value="Resultant Metrics" style="edgeLabel;html=1;align=center;verticalAlign=middle;resizable=0;points=[];" vertex="1" connectable="0" parent="JsnU3qr7tneaZikCSvJV-8">
          <mxGeometry x="-0.1568" y="2" relative="1" as="geometry">
            <mxPoint x="-16" y="-2" as="offset" />
          </mxGeometry>
        </mxCell>
        <mxCell id="JsnU3qr7tneaZikCSvJV-3" value="Bias Detection&lt;br&gt;Process" style="ellipse;whiteSpace=wrap;html=1;aspect=fixed;" vertex="1" parent="1">
          <mxGeometry x="290" y="80" width="130" height="130" as="geometry" />
        </mxCell>
        <mxCell id="JsnU3qr7tneaZikCSvJV-4" style="edgeStyle=orthogonalEdgeStyle;rounded=0;orthogonalLoop=1;jettySize=auto;html=1;entryX=0.012;entryY=0.386;entryDx=0;entryDy=0;exitX=1;exitY=0.25;exitDx=0;exitDy=0;entryPerimeter=0;" edge="1" parent="1" source="JsnU3qr7tneaZikCSvJV-2" target="JsnU3qr7tneaZikCSvJV-3">
          <mxGeometry relative="1" as="geometry">
            <Array as="points" />
          </mxGeometry>
        </mxCell>
        <mxCell id="JsnU3qr7tneaZikCSvJV-5" value="Prompt" style="edgeLabel;html=1;align=center;verticalAlign=middle;resizable=0;points=[];" vertex="1" connectable="0" parent="JsnU3qr7tneaZikCSvJV-4">
          <mxGeometry x="-0.2" y="-1" relative="1" as="geometry">
            <mxPoint x="12" y="-1" as="offset" />
          </mxGeometry>
        </mxCell>
        <mxCell id="JsnU3qr7tneaZikCSvJV-14" value="Context Level DFD" style="shape=umlFrame;whiteSpace=wrap;html=1;pointerEvents=0;width=120;height=30;" vertex="1" parent="1">
          <mxGeometry x="40" y="40" width="390" height="180" as="geometry" />
        </mxCell>
      </root>
    </mxGraphModel>
  </diagram>
</mxfile>
